<mxfile host="app.diagrams.net" agent="Mozilla/5.0 (Windows NT 10.0; Win64; x64) AppleWebKit/537.36 (KHTML, like Gecko) Chrome/133.0.0.0 Safari/537.36 Edg/133.0.0.0" version="26.0.16">
  <diagram name="Page-1" id="ojCLRU5_vDYizBbqlncM">
    <mxGraphModel dx="2121" dy="1415" grid="0" gridSize="10" guides="1" tooltips="1" connect="1" arrows="1" fold="1" page="0" pageScale="1" pageWidth="850" pageHeight="1100" math="0" shadow="0">
      <root>
        <mxCell id="0" />
        <mxCell id="1" parent="0" />
        <mxCell id="95dVnbdJfCDKgmokxEq8-3" value="Actor" style="shape=umlActor;verticalLabelPosition=bottom;verticalAlign=top;html=1;outlineConnect=0;" vertex="1" parent="1">
          <mxGeometry x="-578" y="-175" width="30" height="60" as="geometry" />
        </mxCell>
        <mxCell id="95dVnbdJfCDKgmokxEq8-4" value="Driver" style="text;strokeColor=none;fillColor=none;html=1;align=center;verticalAlign=middle;whiteSpace=wrap;rounded=0;fontSize=16;" vertex="1" parent="1">
          <mxGeometry x="-593" y="-88" width="60" height="30" as="geometry" />
        </mxCell>
        <mxCell id="95dVnbdJfCDKgmokxEq8-6" value="" style="rounded=0;whiteSpace=wrap;html=1;" vertex="1" parent="1">
          <mxGeometry x="-346" y="-170" width="450" height="584" as="geometry" />
        </mxCell>
        <mxCell id="95dVnbdJfCDKgmokxEq8-7" value="Rideshare App System" style="text;strokeColor=none;fillColor=none;html=1;align=center;verticalAlign=middle;whiteSpace=wrap;rounded=0;fontSize=16;" vertex="1" parent="1">
          <mxGeometry x="-331.75" y="-160" width="279.5" height="30" as="geometry" />
        </mxCell>
        <mxCell id="95dVnbdJfCDKgmokxEq8-8" value="Accept Ride Request&lt;div&gt;(Driver selects a ride from available requests)&lt;/div&gt;" style="ellipse;whiteSpace=wrap;html=1;" vertex="1" parent="1">
          <mxGeometry x="-307" y="-121.5" width="210" height="69" as="geometry" />
        </mxCell>
        <mxCell id="95dVnbdJfCDKgmokxEq8-10" value="Use Cases (Driver Perspective)" style="text;strokeColor=none;fillColor=none;html=1;align=center;verticalAlign=middle;whiteSpace=wrap;rounded=0;fontSize=16;" vertex="1" parent="1">
          <mxGeometry x="-320.25" y="-220" width="256.5" height="30" as="geometry" />
        </mxCell>
        <mxCell id="95dVnbdJfCDKgmokxEq8-11" value="Navigate to Pickup location (Driver follows internal GPS to reach rider)" style="ellipse;whiteSpace=wrap;html=1;" vertex="1" parent="1">
          <mxGeometry x="-310" y="-46" width="216" height="80" as="geometry" />
        </mxCell>
        <mxCell id="95dVnbdJfCDKgmokxEq8-12" value="Confirm Pickup (Driver Verifies the rider&#39;s identity matches request)" style="ellipse;whiteSpace=wrap;html=1;" vertex="1" parent="1">
          <mxGeometry x="-307.5" y="39" width="210.5" height="80" as="geometry" />
        </mxCell>
        <mxCell id="95dVnbdJfCDKgmokxEq8-13" value="Navigate to dropoff location (Driver follows internal GPS to location)" style="ellipse;whiteSpace=wrap;html=1;" vertex="1" parent="1">
          <mxGeometry x="-305.5" y="130" width="208.5" height="80" as="geometry" />
        </mxCell>
        <mxCell id="95dVnbdJfCDKgmokxEq8-14" value="Confirm dropoff (Driver completes the ride)" style="ellipse;whiteSpace=wrap;html=1;" vertex="1" parent="1">
          <mxGeometry x="-294" y="210" width="197" height="75" as="geometry" />
        </mxCell>
        <mxCell id="95dVnbdJfCDKgmokxEq8-17" value="" style="edgeStyle=elbowEdgeStyle;elbow=horizontal;endArrow=classic;html=1;curved=0;rounded=0;endSize=8;startSize=8;fontSize=12;" edge="1" parent="1" target="95dVnbdJfCDKgmokxEq8-6">
          <mxGeometry width="50" height="50" relative="1" as="geometry">
            <mxPoint x="-529" y="-133" as="sourcePoint" />
            <mxPoint x="-384" y="-183" as="targetPoint" />
          </mxGeometry>
        </mxCell>
        <mxCell id="95dVnbdJfCDKgmokxEq8-26" value="All ride related use cases" style="edgeLabel;html=1;align=center;verticalAlign=middle;resizable=0;points=[];fontSize=12;" vertex="1" connectable="0" parent="95dVnbdJfCDKgmokxEq8-17">
          <mxGeometry x="0.0656" y="2" relative="1" as="geometry">
            <mxPoint as="offset" />
          </mxGeometry>
        </mxCell>
        <mxCell id="95dVnbdJfCDKgmokxEq8-18" value="Actor" style="shape=umlActor;verticalLabelPosition=bottom;verticalAlign=top;html=1;outlineConnect=0;" vertex="1" parent="1">
          <mxGeometry x="51" y="130" width="30" height="60" as="geometry" />
        </mxCell>
        <mxCell id="95dVnbdJfCDKgmokxEq8-19" value="Rider" style="text;strokeColor=none;fillColor=none;html=1;align=center;verticalAlign=middle;whiteSpace=wrap;rounded=0;fontSize=16;direction=south;" vertex="1" parent="1">
          <mxGeometry x="-9.5" y="190" width="151" height="60" as="geometry" />
        </mxCell>
        <mxCell id="95dVnbdJfCDKgmokxEq8-20" value="Confirm pickup" style="edgeStyle=elbowEdgeStyle;elbow=horizontal;endArrow=classic;html=1;curved=0;rounded=0;endSize=8;startSize=8;fontSize=12;" edge="1" parent="1" source="95dVnbdJfCDKgmokxEq8-18" target="95dVnbdJfCDKgmokxEq8-12">
          <mxGeometry width="50" height="50" relative="1" as="geometry">
            <mxPoint x="51" y="296" as="sourcePoint" />
            <mxPoint x="-384" y="183" as="targetPoint" />
          </mxGeometry>
        </mxCell>
        <mxCell id="95dVnbdJfCDKgmokxEq8-25" value="Confirm dropoff" style="edgeStyle=elbowEdgeStyle;elbow=horizontal;endArrow=classic;html=1;curved=0;rounded=0;endSize=8;startSize=8;fontSize=12;entryX=1;entryY=0.5;entryDx=0;entryDy=0;exitX=0.033;exitY=0.483;exitDx=0;exitDy=0;exitPerimeter=0;" edge="1" parent="1" source="95dVnbdJfCDKgmokxEq8-18" target="95dVnbdJfCDKgmokxEq8-14">
          <mxGeometry width="50" height="50" relative="1" as="geometry">
            <mxPoint x="-97" y="310" as="sourcePoint" />
            <mxPoint x="-47" y="260" as="targetPoint" />
            <Array as="points">
              <mxPoint x="-22" y="202" />
              <mxPoint x="-22" y="207" />
            </Array>
          </mxGeometry>
        </mxCell>
      </root>
    </mxGraphModel>
  </diagram>
</mxfile>
